<?xml version="1.0" standalone="no"?>
<!DOCTYPE svg PUBLIC "-//W3C//DTD SVG 20010904//EN"
 "http://www.w3.org/TR/2001/REC-SVG-20010904/DTD/svg10.dtd">
<svg version="1.0" xmlns="http://www.w3.org/2000/svg"
 width="377.000000pt" height="377.000000pt" viewBox="0 0 377.000000 377.000000"
 preserveAspectRatio="xMidYMid meet">
<metadata>
Created by potrace 1.14, written by Peter Selinger 2001-2017
</metadata>
<g transform="translate(0.000000,377.000000) scale(0.100000,-0.100000)"
fill="#000000" stroke="none">
<path d="M49 3756 c0 -1 -1 -27 -2 -58 l-2 -58 35 -1 c19 -1 52 0 73 1 l37 2
0 -381 0 -381 63 0 64 0 1 368 c0 202 1 372 1 379 1 7 21 11 59 11 90 0 87 -1
85 34 -1 18 -2 44 -2 59 l-1 25 -205 0 c-113 0 -205 0 -206 0z"/>
<path d="M590 3721 c-11 -42 -30 -125 -36 -161 -3 -14 -18 -84 -35 -156 -16
-73 -31 -140 -34 -150 -2 -11 -9 -41 -15 -69 -6 -27 -14 -60 -16 -73 -6 -31
-44 -193 -50 -214 -5 -16 2 -18 60 -18 l65 0 11 58 c7 31 15 73 19 92 l7 35
84 0 85 0 12 -60 c7 -33 15 -69 17 -80 3 -11 5 -26 5 -32 1 -9 21 -13 67 -13
61 0 65 1 59 20 -3 11 -8 30 -11 42 -2 13 -44 201 -92 418 l-89 395 -51 1
c-52 1 -52 1 -62 -35z m67 -243 c0 -7 8 -51 17 -98 41 -208 42 -193 -22 -194
-30 -1 -56 2 -58 5 -2 4 7 67 21 140 25 134 31 159 38 159 2 0 4 -6 4 -12z"/>
<path d="M849 3751 c-6 -45 -3 -95 6 -105 7 -7 36 -11 73 -9 l62 2 0 -380 0
-379 64 0 63 0 0 369 c0 203 3 373 7 379 4 6 34 11 67 11 33 0 63 2 66 5 5 5
7 38 4 92 -1 19 -6 20 -206 20 -113 0 -205 -2 -206 -5z"/>
<path d="M1331 3318 l0 -438 65 0 64 0 0 439 0 438 -65 -1 -65 -1 1 -437z"/>
<path d="M1730 3721 c-10 -39 -26 -112 -33 -151 -3 -14 -14 -63 -26 -110 -11
-47 -22 -96 -25 -110 -2 -14 -11 -54 -20 -90 -8 -36 -18 -83 -22 -105 -3 -22
-8 -43 -10 -46 -2 -3 -13 -48 -24 -100 -11 -52 -23 -102 -26 -111 -5 -16 2
-18 60 -18 l65 0 11 58 c7 31 15 73 19 92 l7 35 84 0 85 0 12 -60 c7 -33 15
-69 17 -80 3 -11 5 -26 5 -32 1 -9 21 -13 67 -13 58 0 65 2 60 18 -5 16 -110
481 -120 532 -8 41 -56 252 -66 291 -10 34 -11 35 -60 35 -49 1 -50 0 -60 -35z
m67 -243 c0 -7 12 -73 27 -147 14 -74 24 -136 22 -139 -8 -7 -107 -8 -112 0
-3 4 7 67 21 140 27 137 32 158 38 158 2 0 4 -6 4 -12z"/>
<path d="M2109 3750 c-1 -3 -3 -200 -3 -437 l-2 -433 63 0 63 0 0 263 1 262
50 -135 c27 -74 70 -192 95 -262 l46 -128 59 0 c33 0 59 5 60 10 0 6 1 192 1
415 0 223 -1 416 -1 429 -1 21 -5 23 -60 23 -46 0 -60 -4 -63 -16 -2 -9 -4
-125 -3 -258 0 -133 -2 -240 -4 -237 -5 4 -128 344 -164 450 l-20 61 -59 -1
c-32 0 -59 -3 -59 -6z"/>
<path d="M2801 3721 c-6 -20 -19 -76 -30 -126 -58 -264 -152 -682 -157 -697
-5 -16 2 -18 60 -18 l65 0 11 58 c6 31 14 71 17 87 4 17 6 33 5 37 -1 4 37 7
85 5 l87 -2 7 -35 c4 -19 12 -61 19 -92 l11 -58 65 0 c58 0 65 2 60 18 -7 23
-176 779 -183 817 -7 39 -7 40 -64 41 -48 2 -49 1 -58 -35z m70 -258 c0 -10 2
-25 4 -33 1 -8 8 -42 14 -75 6 -33 13 -71 16 -85 3 -14 7 -38 11 -55 l5 -30
-56 1 c-30 1 -57 3 -60 6 -8 7 48 288 57 288 4 0 8 -8 9 -17z"/>
<path d="M3477 2798 c-62 -13 -113 -51 -143 -108 -17 -31 -19 -64 -22 -312 -2
-182 1 -291 8 -318 16 -60 83 -123 145 -139 113 -28 227 31 256 134 7 25 11
141 11 316 0 256 -2 279 -20 315 -45 88 -138 133 -235 112z m108 -149 c19 -19
20 -33 21 -282 0 -145 -4 -272 -9 -283 -11 -25 -47 -44 -83 -44 -38 0 -74 42
-75 87 -3 157 1 488 6 504 8 25 60 49 95 42 14 -2 34 -13 45 -24z"/>
<path d="M590 2359 l0 -439 114 0 c170 0 235 31 273 129 16 40 18 82 17 321 0
262 -1 277 -22 317 -21 41 -66 82 -107 98 -11 4 -77 9 -147 10 l-128 3 0 -439z
m254 291 c20 -20 21 -32 24 -274 3 -294 -1 -320 -61 -331 -18 -4 -47 -5 -63
-3 l-29 3 -1 310 c0 171 2 314 4 319 8 16 104 -2 126 -24z"/>
<path d="M1130 2358 l0 -438 185 0 c141 0 185 3 186 13 1 17 1 90 0 102 -1 6
-46 10 -117 10 -66 0 -119 4 -122 10 -4 6 -7 63 -7 128 l-1 117 108 0 108 0 0
60 0 59 -107 3 -108 3 0 125 0 125 120 0 c66 0 122 3 126 7 3 4 4 31 3 60 l-1
53 -187 1 -186 1 0 -439z"/>
<path d="M1604 2789 c-4 -7 -6 -453 -4 -811 l0 -58 185 0 c200 0 187 -4 187
55 0 78 11 71 -114 70 -62 -1 -118 0 -123 2 -7 2 -10 131 -9 366 0 199 -1 367
-3 372 -4 13 -111 16 -119 4z"/>
<path d="M2310 2357 l0 -439 133 4 c144 5 176 15 221 68 46 56 50 86 50 380 0
264 -1 277 -22 317 -23 44 -70 85 -112 99 -14 4 -80 8 -147 9 l-123 2 0 -440z
m254 293 c20 -20 21 -32 24 -268 4 -272 -2 -316 -44 -332 -36 -14 -101 -12
-106 3 -4 10 -3 616 1 625 0 2 24 1 52 -1 34 -4 59 -13 73 -27z"/>
<path d="M2850 2358 l0 -438 185 0 c116 0 185 4 186 10 5 54 2 110 -6 113 -5
2 -59 3 -118 2 -66 0 -111 3 -115 10 -4 5 -7 63 -7 128 l-1 117 108 0 108 0 0
60 0 60 -104 0 c-74 0 -105 4 -108 13 -2 6 -4 64 -3 127 l0 115 75 2 c41 1 98
2 125 2 l50 1 -1 52 c-1 29 -2 56 -3 59 -1 3 -84 6 -186 6 l-185 0 0 -439z"/>
<path d="M1825 1842 c-72 -13 -120 -45 -160 -107 -19 -28 -20 -51 -22 -320 -3
-329 0 -347 66 -406 86 -77 221 -73 299 9 52 56 55 75 54 377 0 301 -4 328
-55 383 -39 43 -128 74 -182 64z m90 -152 c19 -20 20 -32 21 -278 1 -141 -3
-268 -8 -281 -20 -54 -87 -68 -133 -28 l-27 23 1 263 c0 145 3 272 6 282 15
46 101 58 140 19z"/>
<path d="M2741 1838 c-60 -10 -116 -50 -143 -101 -22 -40 -23 -53 -26 -319 -2
-182 1 -291 8 -318 15 -56 83 -123 137 -137 112 -28 219 20 260 117 23 53 21
580 -2 636 -38 92 -131 141 -234 122z m104 -149 c19 -18 20 -34 21 -282 1
-263 -1 -288 -35 -314 -46 -36 -130 5 -132 64 -4 122 1 497 6 514 9 26 62 50
95 43 14 -3 34 -14 45 -25z"/>
<path d="M590 1399 l0 -439 63 0 62 0 0 168 0 167 71 6 c80 7 120 25 157 68
39 47 51 96 51 208 -1 88 -4 109 -26 150 -14 28 -42 60 -66 77 -40 28 -45 29
-176 31 l-136 3 0 -439z m254 302 c25 -21 34 -64 31 -150 -3 -107 -18 -125
-102 -126 l-57 0 -1 148 0 149 58 -5 c31 -3 64 -10 71 -16z"/>
<path d="M1110 1398 l0 -438 63 0 63 0 -1 193 0 192 78 3 77 3 0 -196 0 -195
63 0 63 0 0 439 -1 438 -62 0 -63 0 0 -189 0 -189 -77 3 -78 3 -1 180 c-1 99
-2 183 -3 187 0 3 -28 6 -61 5 l-60 -1 0 -438z"/>
<path d="M2109 1831 c-1 -4 -2 -30 -4 -58 -2 -59 -7 -57 98 -53 l47 1 0 -380
0 -381 64 0 64 0 0 348 c0 191 1 361 1 379 l1 32 65 0 c36 0 68 2 72 4 6 4 9
76 4 108 -1 7 -411 7 -412 0z"/>
<path d="M3111 1360 c-4 -3 -7 -32 -7 -64 l1 -59 153 1 c83 0 167 1 185 1 l33
1 0 60 c-1 33 -5 60 -11 61 -39 4 -348 3 -354 -1z"/>
<path d="M285 882 c-76 -13 -137 -58 -164 -122 -20 -46 -21 -63 -18 -337 2
-283 2 -289 25 -326 41 -65 85 -91 162 -95 38 -2 85 1 105 8 45 15 101 71 116
117 6 18 11 105 12 193 l2 160 -47 1 c-61 1 -109 1 -151 0 -32 -1 -32 -1 -30
-48 1 -27 2 -51 2 -55 1 -5 23 -8 49 -8 l49 0 -2 -97 c-2 -111 -6 -126 -41
-142 -39 -18 -73 -13 -99 14 l-25 24 -1 233 c-2 329 -3 320 40 343 57 29 121
-5 125 -67 1 -19 5 -39 9 -44 7 -12 102 -13 113 -1 23 23 -8 141 -49 185 -39
43 -128 74 -182 64z"/>
<path d="M656 872 c-3 -3 -6 -200 -6 -439 l0 -433 63 0 63 0 -1 185 c0 119 3
186 10 186 24 4 59 -1 65 -8 4 -4 31 -88 61 -185 l54 -178 67 0 66 0 -65 198
-66 197 41 40 c46 46 63 96 63 185 1 119 -42 204 -120 238 -36 15 -282 28
-295 14z m251 -131 c27 -14 34 -37 37 -110 3 -75 -9 -115 -38 -130 -24 -13
-125 -22 -127 -12 -4 19 -5 248 -1 259 6 16 96 11 129 -7z"/>
<path d="M1311 842 c-10 -38 -69 -294 -75 -329 -2 -10 -16 -72 -31 -138 -15
-66 -29 -130 -31 -143 -6 -29 -44 -192 -50 -214 -5 -16 2 -18 60 -18 l65 0 11
58 c6 31 14 73 18 92 l8 35 84 0 85 0 12 -60 c7 -33 15 -69 17 -80 3 -11 5
-26 5 -32 1 -9 21 -13 67 -13 58 0 65 2 60 18 -4 13 -73 316 -91 402 -27 127
-99 446 -102 450 -2 2 -26 5 -53 6 -49 2 -50 2 -59 -34z m68 -269 c6 -21 13
-56 17 -78 3 -22 12 -71 20 -108 8 -38 12 -72 10 -76 -5 -7 -104 -6 -112 2 -2
2 7 62 21 132 14 71 25 137 25 147 0 29 9 21 19 -19z"/>
<path d="M1700 754 c-1 -68 -1 -162 -1 -209 0 -47 0 -188 1 -315 l0 -230 63 0
63 0 -1 170 -1 170 51 1 c92 1 135 18 178 68 38 46 51 96 51 201 1 112 -19
176 -67 216 -48 40 -73 46 -209 50 l-128 3 0 -125z m255 -14 c23 -19 35 -71
32 -146 -4 -109 -33 -140 -123 -132 l-39 3 -1 140 c0 77 2 144 4 148 6 12 110
1 127 -13z"/>
<path d="M2210 438 l0 -438 63 0 63 0 -1 195 0 195 77 0 78 0 0 -195 0 -195
63 0 63 0 0 438 -1 439 -62 -1 -63 0 0 -188 0 -188 -75 0 c-41 0 -76 3 -76 8
-1 4 -2 88 -3 187 l-1 180 -63 1 -62 1 0 -439z"/>
<path d="M2700 865 c0 -7 37 -117 81 -246 l82 -234 2 -185 c2 -102 3 -188 4
-192 1 -5 28 -8 61 -8 l60 0 0 183 0 183 85 248 c47 137 85 251 85 255 0 4
-29 7 -65 7 -50 0 -66 -3 -69 -15 -3 -9 -24 -81 -47 -161 -23 -80 -45 -148
-48 -153 -4 -4 -27 61 -50 145 -24 84 -47 160 -52 169 -10 20 -129 23 -129 4z"/>
</g>
</svg>
